<svg data-v-423bf9ae="" xmlns="http://www.w3.org/2000/svg" viewBox="0 0 612 90" class="iconLeft"><!----><!----><!----><g data-v-423bf9ae="" id="1c27b107-9b89-42ed-9054-2b601b591d8d" fill="#000000" transform="matrix(3.7759596415120917,0,0,3.7759596415120917,108.793140030524,12.885461697680967)"><path d="M5.10 0.84C3.23 0.84 1.33 2.21 1.33 4.37C1.33 5.57 2.14 6.65 3.53 7.34C4.90 8.02 6.13 8.40 6.13 9.24C6.13 10.32 5.04 10.37 4.47 10.37C3.18 10.37 1.64 9.07 1.64 9.07L0.32 11.28C0.32 11.28 1.96 12.81 4.66 12.81C6.92 12.81 9.02 11.84 9.02 9.09C9.02 7.57 7.60 6.48 6.31 5.94C5.00 5.38 3.91 4.91 3.91 4.27C3.91 3.64 4.38 3.23 5.28 3.23C6.47 3.23 7.62 4.03 7.62 4.03L8.68 1.93C8.68 1.93 7.20 0.84 5.10 0.84ZM12.59 5.42L10.11 5.42L10.11 9.44C10.11 11.84 11.31 12.81 14 12.81C16.69 12.81 17.89 11.84 17.89 9.44L17.89 5.42L15.41 5.42L15.41 8.83C15.41 10.25 15.04 10.79 14 10.79C12.96 10.79 12.59 10.25 12.59 8.83ZM19.43 12.60L21.91 12.60L21.91 8.54C21.91 7.83 22.64 7.14 23.38 7.14C24.18 7.14 24.67 7.83 24.67 8.54L24.67 12.60L27.15 12.60L27.15 7.87C27.15 5.87 25.31 5.21 24.00 5.21C23.21 5.21 22.50 5.61 21.94 6.17L21.91 6.17L21.91 5.42L19.43 5.42ZM28.69 12.60L31.16 12.60L31.16 8.82C31.16 8.64 31.35 7.36 32.63 7.36C33.46 7.36 33.92 7.76 33.92 7.76L34.96 5.66C34.96 5.66 34.31 5.21 33.39 5.21C31.98 5.21 31.19 6.45 31.19 6.45L31.16 6.45L31.16 5.42L28.69 5.42ZM36.93 0.98C36.12 0.98 35.46 1.64 35.46 2.45C35.46 3.26 36.12 3.92 36.93 3.92C37.74 3.92 38.40 3.26 38.40 2.45C38.40 1.64 37.74 0.98 36.93 0.98ZM35.66 5.42L38.14 5.42L38.14 12.60L35.66 12.60ZM39.37 9.02C39.37 11.12 40.84 12.81 42.94 12.81C43.92 12.81 44.76 12.38 45.29 11.79L45.32 11.79L45.32 12.60L47.77 12.60L47.77 0.56L45.29 0.56L45.29 6.10C44.70 5.53 43.90 5.21 42.94 5.21C40.84 5.21 39.37 6.92 39.37 9.02ZM42 9.02C42 8.02 42.74 7.32 43.68 7.32C44.60 7.32 45.35 8.02 45.35 9.02C45.35 10.00 44.65 10.70 43.68 10.70C42.67 10.70 42 10.00 42 9.02ZM49.13 14.36C49.88 16.11 51.60 16.45 53.10 16.45C55.55 16.45 57.33 15.20 57.33 12.80L57.33 5.42L54.85 5.42L54.85 6.06L54.81 6.06C54.22 5.52 53.45 5.21 52.50 5.21C50.40 5.21 48.93 6.92 48.93 9.02C48.93 11.12 50.40 12.81 52.50 12.81C53.48 12.81 54.32 12.67 54.85 12.08L54.85 12.61C54.85 13.89 53.79 14.29 53.10 14.29C52.02 14.29 51.42 13.80 51.16 13.37ZM51.56 9.02C51.56 8.02 52.30 7.32 53.24 7.32C54.17 7.32 54.91 8.02 54.91 9.02C54.91 10.00 54.21 10.70 53.24 10.70C52.23 10.70 51.56 10.00 51.56 9.02ZM66.21 9.35C66.22 9.27 66.22 9.11 66.22 9.02C66.22 6.50 64.55 5.21 62.37 5.21C60.20 5.21 58.42 6.92 58.42 9.02C58.42 11.10 60.20 12.81 62.37 12.81C63.97 12.81 65.28 12.29 66.09 10.93L64.30 10.04C63.70 10.68 63.35 10.84 62.55 10.84C61.92 10.84 61.00 10.46 61.00 9.35ZM61.07 7.98C61.11 7.32 61.59 6.82 62.44 6.82C63.17 6.82 63.69 7.22 63.80 7.98ZM73.63 12.60L75.70 12.60L80.54 1.05L77.57 1.05L74.66 8.64L71.75 1.05L68.78 1.05ZM87.28 9.35C87.29 9.27 87.29 9.11 87.29 9.02C87.29 6.50 85.62 5.21 83.44 5.21C81.27 5.21 79.49 6.92 79.49 9.02C79.49 11.10 81.27 12.81 83.44 12.81C85.04 12.81 86.35 12.29 87.16 10.93L85.37 10.04C84.77 10.68 84.42 10.84 83.62 10.84C82.99 10.84 82.07 10.46 82.07 9.35ZM82.14 7.98C82.18 7.32 82.66 6.82 83.51 6.82C84.24 6.82 84.76 7.22 84.87 7.98ZM88.42 12.60L90.90 12.60L90.90 8.54C90.90 7.83 91.63 7.14 92.37 7.14C93.17 7.14 93.66 7.83 93.66 8.54L93.66 12.60L96.14 12.60L96.14 7.87C96.14 5.87 94.30 5.21 92.99 5.21C92.20 5.21 91.49 5.61 90.93 6.17L90.90 6.17L90.90 5.42L88.42 5.42ZM98.01 5.42L96.98 5.42L96.98 7.31L98.01 7.31L98.01 10.07C98.01 11.34 98.49 12.81 100.46 12.81C101.49 12.81 102.28 12.36 102.28 12.36L101.67 10.36C101.67 10.36 101.37 10.58 101.05 10.58C100.66 10.58 100.49 10.26 100.49 9.59L100.49 7.31L102.00 7.31L102.00 5.42L100.49 5.42L100.49 2.74L98.01 2.74ZM105.46 5.42L102.98 5.42L102.98 9.44C102.98 11.84 104.19 12.81 106.88 12.81C109.56 12.81 110.77 11.84 110.77 9.44L110.77 5.42L108.29 5.42L108.29 8.83C108.29 10.25 107.91 10.79 106.88 10.79C105.84 10.79 105.46 10.25 105.46 8.83ZM112.31 12.60L114.79 12.60L114.79 8.82C114.79 8.64 114.97 7.36 116.26 7.36C117.08 7.36 117.54 7.76 117.54 7.76L118.58 5.66C118.58 5.66 117.94 5.21 117.01 5.21C115.60 5.21 114.81 6.45 114.81 6.45L114.79 6.45L114.79 5.42L112.31 5.42ZM126.46 9.35C126.48 9.27 126.48 9.11 126.48 9.02C126.48 6.50 124.81 5.21 122.63 5.21C120.46 5.21 118.68 6.92 118.68 9.02C118.68 11.10 120.46 12.81 122.63 12.81C124.22 12.81 125.54 12.29 126.35 10.93L124.56 10.04C123.96 10.68 123.61 10.84 122.81 10.84C122.18 10.84 121.25 10.46 121.25 9.35ZM121.32 7.98C121.37 7.32 121.84 6.82 122.70 6.82C123.42 6.82 123.94 7.22 124.05 7.98ZM130.70 5.21C128.81 5.21 127.57 6.05 127.57 7.52C127.57 8.60 128.30 9.10 129.02 9.48C129.84 9.90 130.62 9.94 130.62 10.46C130.62 10.93 130.20 10.98 129.85 10.98C129.05 10.98 128.07 10.15 128.07 10.15L127.06 11.84C127.06 11.84 128.10 12.81 129.84 12.81C131.31 12.81 133.24 12.47 133.24 10.36C133.24 8.89 132.01 8.36 131.05 8.06C130.44 7.87 129.93 7.76 129.93 7.38C129.93 7.04 130.16 6.94 130.70 6.94C131.46 6.94 132.30 7.39 132.30 7.39L133.11 5.77C133.11 5.77 132.09 5.21 130.70 5.21Z"></path></g><!----><g data-v-423bf9ae="" id="89df58e0-be81-41c6-ad03-5c05cdd4f980" transform="matrix(1.3837212916787143,0,0,1.3837212916787143,-22.52397983152271,-24.906983250216854)" stroke="none" fill="#EB4C00"><switch><g><path d="M81.95 52.852c-.552 7.789-3.845 14.816-8.922 20.129-1.799-2.638-4.452-5.125-7.739-7.365-4.193-2.849-9.454-5.311-15.421-7.144a74.523 74.523 0 0 1 8.222-2.942c6.713-1.973 13.261-2.906 19.078-2.906a48.963 48.963 0 0 1 4.782.228zm-15.8 6.515h-.398v3.939h.398v-3.939zm-.005.003c.834-.089 1.35-1.166 1.152-2.269-.091-.5-.152-1.062-.061-1.668-1.336.305-3.02 2.686-1.49 3.927-.045-.778.205-2.327.975-3.048-.77 1.708-.598 2.499-.576 3.058zm.151.617c.231.532 1.051.65 1.74.29.312-.162.67-.32 1.089-.385-.351-.641-1.926-1.459-2.8-.137.499-.132 1.655-.23 2.112-.022-.527-.01-1.776.123-2.141.254zm-.754.701c.286-.506-.114-1.23-.817-1.562a3.542 3.542 0 0 1-.965-.636c-.299.665-.002 2.415 1.578 2.314-.404-.317-1.181-1.182-1.289-1.671.308.426 1.169 1.342 1.493 1.555zm10.968-2.241h-.398v3.94h.398v-3.94zm-.006.004c.834-.09 1.35-1.166 1.152-2.27-.091-.5-.152-1.062-.061-1.667-1.336.304-3.02 2.685-1.49 3.927-.045-.779.205-2.327.975-3.049-.769 1.708-.598 2.499-.576 3.059zm.151.617c.231.532 1.051.65 1.74.289.312-.162.67-.319 1.089-.385-.351-.641-1.926-1.459-2.8-.137.499-.131 1.655-.23 2.112-.021-.526-.01-1.775.124-2.141.254zm-.754.701c.286-.506-.114-1.23-.817-1.563a3.56 3.56 0 0 1-.965-.635c-.299.664-.002 2.414 1.578 2.314-.404-.318-1.181-1.182-1.289-1.671.309.425 1.169 1.342 1.493 1.555zm-4.141 3.928h-.398v3.94h.398v-3.94zm-.006.004c.834-.09 1.35-1.166 1.152-2.27-.091-.5-.152-1.062-.061-1.667-1.336.304-3.02 2.685-1.49 3.927-.045-.779.205-2.327.975-3.049-.769 1.708-.598 2.499-.576 3.059zm.151.617c.231.532 1.051.65 1.74.289.312-.162.67-.319 1.089-.385-.351-.641-1.926-1.459-2.8-.137.499-.131 1.655-.23 2.112-.021-.526-.01-1.775.124-2.141.254zm-.754.701c.286-.506-.114-1.23-.817-1.563a3.56 3.56 0 0 1-.965-.635c-.299.664-.002 2.414 1.578 2.314-.404-.318-1.181-1.182-1.289-1.671.309.425 1.169 1.342 1.493 1.555zM53.229 36.634c7.902-3.382 15.73-5.161 22.443-5.444a32.368 32.368 0 0 1 6.371 19.331c0 .111-.008.22-.009.331a51.591 51.591 0 0 0-4.866-.228c-4.529 0-9.451.545-14.537 1.671-4.162-4.358-10.32-8.367-17.762-11.441a75.021 75.021 0 0 1 8.36-4.22zm11.452 2.251h-.398v3.94h.398v-3.94zm-.007.003c.836-.089 1.352-1.166 1.152-2.269-.09-.5-.151-1.062-.061-1.667-1.334.304-3.018 2.685-1.49 3.926-.044-.779.206-2.327.975-3.048-.769 1.708-.598 2.498-.576 3.058zm.152.617c.231.533 1.051.65 1.74.29.312-.163.67-.32 1.09-.385-.352-.641-1.926-1.458-2.801-.137.499-.131 1.655-.23 2.113-.022-.527-.01-1.777.124-2.142.254zm-.754.701c.286-.506-.113-1.23-.817-1.563a3.531 3.531 0 0 1-.964-.636c-.301.665-.003 2.415 1.577 2.314-.403-.318-1.181-1.182-1.29-1.67.311.425 1.17 1.342 1.494 1.555zm9.967-2.241h-.398v3.94h.398v-3.94zm-.006.004c.834-.089 1.35-1.166 1.152-2.269-.091-.5-.152-1.062-.061-1.667-1.336.304-3.02 2.685-1.49 3.926-.045-.779.205-2.327.975-3.048-.769 1.707-.597 2.498-.576 3.058zm.152.617c.231.533 1.051.65 1.74.29a3.49 3.49 0 0 1 1.089-.385c-.351-.641-1.926-1.458-2.8-.137.499-.131 1.655-.23 2.112-.022-.527-.01-1.776.123-2.141.254zm-.754.701c.286-.506-.114-1.23-.817-1.563a3.565 3.565 0 0 1-.965-.636c-.299.665-.002 2.415 1.578 2.314-.404-.318-1.181-1.182-1.289-1.67.308.425 1.168 1.342 1.493 1.555zm3.953 5.549h-.398v3.94h.398v-3.94zm-.007.003c.836-.089 1.352-1.166 1.152-2.269-.09-.5-.151-1.062-.061-1.667-1.334.304-3.018 2.685-1.49 3.926-.044-.779.206-2.327.975-3.048-.768 1.708-.598 2.498-.576 3.058zm.152.618c.231.533 1.051.65 1.74.29.312-.163.67-.32 1.09-.385-.352-.641-1.926-1.458-2.801-.137.499-.131 1.655-.23 2.113-.022-.526-.011-1.776.123-2.142.254zm-.754.7c.286-.506-.113-1.23-.817-1.563a3.531 3.531 0 0 1-.964-.636c-.301.665-.003 2.415 1.577 2.314-.403-.318-1.181-1.182-1.29-1.67.311.425 1.17 1.342 1.494 1.555zm-8.141-1.571h-.398v3.94h.398v-3.94zm-.007.003c.836-.089 1.352-1.166 1.152-2.269-.09-.5-.151-1.062-.061-1.667-1.334.304-3.018 2.685-1.49 3.926-.044-.779.206-2.327.975-3.048-.768 1.708-.598 2.498-.576 3.058zm.152.618c.231.533 1.051.65 1.74.29.312-.163.67-.32 1.09-.385-.352-.641-1.926-1.458-2.801-.137.499-.131 1.655-.23 2.113-.022-.526-.011-1.776.123-2.142.254zm-.754.7c.286-.506-.113-1.23-.817-1.563a3.531 3.531 0 0 1-.964-.636c-.301.665-.003 2.415 1.577 2.314-.403-.318-1.181-1.182-1.29-1.67.311.425 1.17 1.342 1.494 1.555zm-10.391-4.571h-.398v3.94h.398v-3.94zm-.007.003c.836-.089 1.352-1.166 1.152-2.269-.09-.5-.151-1.062-.061-1.667-1.334.304-3.018 2.685-1.49 3.926-.044-.779.206-2.327.975-3.048-.768 1.708-.598 2.498-.576 3.058zm.152.618c.231.533 1.051.65 1.74.29.312-.163.67-.32 1.09-.385-.352-.641-1.926-1.458-2.801-.137.499-.131 1.655-.23 2.113-.022-.526-.011-1.776.123-2.142.254zm-.754.7c.286-.506-.113-1.23-.817-1.563a3.531 3.531 0 0 1-.964-.636c-.301.665-.003 2.415 1.577 2.314-.403-.318-1.181-1.182-1.29-1.67.311.425 1.17 1.342 1.494 1.555z"></path><path d="M17.853 57.908c3.023-.527 6.331-.811 9.849-.8 3.873 0 7.979.338 12.192 1.056 9.719 1.645 18.24 5.002 24.271 9.104 3.292 2.233 5.803 4.678 7.41 7.146-5.797 5.354-13.542 8.628-22.055 8.628-15.417 0-28.32-10.733-31.667-25.134zm10.45 6.633h-.5v4.936h.5v-4.936zm-.009.004c1.045-.111 1.691-1.461 1.443-2.842-.113-.627-.19-1.33-.076-2.088-1.672.38-3.781 3.363-1.867 4.918-.056-.977.258-2.914 1.221-3.818-.962 2.139-.748 3.129-.721 3.83zm.19.773c.29.667 1.316.814 2.18.363.39-.204.839-.4 1.364-.482-.439-.803-2.412-1.827-3.507-.172.625-.164 2.073-.289 2.646-.027-.66-.013-2.225.154-2.683.318zm-.944.877c.358-.633-.143-1.541-1.024-1.957-.398-.189-.825-.428-1.208-.797-.375.833-.003 3.025 1.977 2.899-.506-.398-1.479-1.48-1.615-2.093.387.534 1.464 1.683 1.87 1.948zm9.263.596h-.5v4.936h.5v-4.936zm-.009.004c1.045-.111 1.691-1.461 1.443-2.842-.113-.627-.19-1.33-.076-2.088-1.672.38-3.781 3.363-1.867 4.918-.056-.977.258-2.914 1.221-3.818-.962 2.139-.748 3.129-.721 3.83zm.19.773c.29.667 1.316.814 2.18.363.39-.204.839-.4 1.364-.482-.439-.803-2.412-1.827-3.507-.172.625-.164 2.073-.289 2.646-.027-.66-.013-2.225.154-2.683.318zm-.944.877c.358-.633-.143-1.541-1.024-1.957-.398-.189-.825-.428-1.208-.797-.375.833-.003 3.025 1.977 2.899-.506-.398-1.479-1.48-1.615-2.093.387.534 1.464 1.683 1.87 1.948zm9.013.846h-.5v4.936h.5v-4.936zm-.009.004c1.045-.111 1.691-1.461 1.443-2.842-.113-.627-.19-1.33-.076-2.088-1.672.38-3.781 3.363-1.867 4.918-.056-.977.258-2.914 1.221-3.818-.962 2.139-.748 3.129-.721 3.83zm.19.773c.29.667 1.316.814 2.18.363.39-.204.839-.4 1.364-.482-.439-.803-2.412-1.827-3.507-.172.625-.164 2.073-.289 2.646-.027-.66-.013-2.225.154-2.683.318zm-.944.877c.358-.633-.143-1.541-1.024-1.957-.398-.189-.825-.428-1.208-.797-.375.833-.003 3.025 1.977 2.899-.506-.398-1.479-1.48-1.615-2.093.387.534 1.464 1.683 1.87 1.948zm8.013.846h-.5v4.936h.5v-4.936zm-.008.004c1.045-.111 1.691-1.461 1.443-2.842-.113-.627-.191-1.33-.076-2.088-1.672.38-3.781 3.363-1.867 4.918-.056-.977.258-2.914 1.221-3.818-.963 2.139-.748 3.129-.721 3.83zm.189.773c.29.667 1.316.814 2.18.363.391-.204.839-.4 1.364-.482-.439-.803-2.412-1.827-3.507-.172.625-.164 2.072-.289 2.646-.027-.66-.013-2.226.154-2.683.318zm-.944.877c.358-.633-.143-1.541-1.024-1.957-.398-.189-.825-.428-1.208-.797-.375.833-.003 3.025 1.977 2.899-.507-.398-1.479-1.48-1.616-2.093.388.534 1.465 1.683 1.871 1.948zm8.763.596h-.5v4.936h.5v-4.936zm-.008.004c1.045-.111 1.691-1.461 1.443-2.842-.113-.627-.191-1.33-.076-2.088-1.672.38-3.781 3.363-1.867 4.918-.056-.977.258-2.914 1.221-3.818-.963 2.139-.748 3.129-.721 3.83zm.189.773c.29.667 1.316.814 2.18.363.391-.204.839-.4 1.364-.482-.439-.803-2.412-1.827-3.507-.172.625-.164 2.072-.289 2.646-.027-.66-.013-2.226.154-2.683.318zm-.944.877c.358-.633-.143-1.541-1.024-1.957-.398-.189-.824-.428-1.207-.797-.375.833-.004 3.025 1.977 2.899-.507-.398-1.479-1.48-1.615-2.093.386.534 1.463 1.683 1.869 1.948zM27.702 55.109c-3.616.01-7.061.299-10.241.848A32.686 32.686 0 0 1 17 50.521c0-4.745 1.024-9.247 2.851-13.311 4.694.216 9.747.975 14.917 2.345 10.89 2.881 20.017 7.856 25.593 13.283-.941.238-1.886.492-2.834.771-3.676 1.079-7.16 2.506-10.371 3.985-2.269-.607-4.495-.99-6.926-1.402a74.985 74.985 0 0 0-12.528-1.083zm-4.729-10.982h-.382V47.9h.382v-3.773zm-.006.003c.799-.085 1.293-1.116 1.104-2.172-.086-.479-.146-1.017-.058-1.596-1.278.291-2.891 2.571-1.427 3.759-.042-.746.197-2.228.933-2.918-.737 1.634-.573 2.392-.552 2.927zm.145.592c.222.51 1.006.623 1.666.277a3.386 3.386 0 0 1 1.043-.369c-.336-.613-1.844-1.396-2.681-.131.478-.125 1.585-.221 2.023-.021-.505-.009-1.701.119-2.051.244zm-.722.671c.274-.484-.109-1.178-.783-1.497a3.37 3.37 0 0 1-.923-.609c-.287.637-.002 2.313 1.511 2.216-.387-.305-1.13-1.132-1.235-1.6.296.408 1.12 1.286 1.43 1.49zm7.081.454h-.382v3.774h.382v-3.774zm-.006.004c.799-.085 1.293-1.116 1.104-2.172-.086-.479-.146-1.017-.058-1.596-1.278.291-2.89 2.571-1.427 3.759-.042-.746.197-2.228.934-2.918-.738 1.634-.574 2.39-.553 2.927zm.145.59c.222.511 1.006.623 1.667.278a3.35 3.35 0 0 1 1.043-.369c-.336-.613-1.844-1.396-2.682-.131.478-.125 1.585-.221 2.023-.021-.505-.009-1.701.118-2.051.243zm-.722.672c.274-.484-.109-1.179-.783-1.497a3.37 3.37 0 0 1-.923-.609c-.287.637-.002 2.313 1.511 2.217-.387-.305-1.131-1.132-1.235-1.6.297.407 1.12 1.285 1.43 1.489zm6.89.646h-.382v3.773h.382v-3.773zm-.006.003c.799-.085 1.293-1.116 1.104-2.172-.086-.479-.146-1.017-.058-1.596-1.278.291-2.891 2.571-1.427 3.759-.042-.746.197-2.228.934-2.918-.738 1.634-.574 2.391-.553 2.927zm.145.591c.222.51 1.006.623 1.666.277a3.386 3.386 0 0 1 1.043-.369c-.336-.613-1.844-1.396-2.681-.131.478-.125 1.585-.221 2.023-.021-.505-.009-1.701.119-2.051.244zm-.722.671c.274-.484-.109-1.178-.783-1.497a3.37 3.37 0 0 1-.923-.609c-.287.637-.002 2.312 1.511 2.216-.387-.305-1.13-1.132-1.235-1.6.297.408 1.12 1.286 1.43 1.49zm6.126.646h-.382v3.773h.382V49.67zm-.006.003c.799-.085 1.293-1.117 1.103-2.173-.086-.479-.146-1.016-.058-1.596-1.278.291-2.89 2.571-1.427 3.76-.042-.746.197-2.228.934-2.918-.737 1.634-.573 2.391-.552 2.927zm.145.591c.222.51 1.006.623 1.667.278a3.35 3.35 0 0 1 1.043-.369c-.336-.613-1.844-1.396-2.682-.131.478-.125 1.585-.221 2.023-.021-.505-.01-1.701.118-2.051.243zm-.722.671c.274-.484-.109-1.178-.783-1.496a3.394 3.394 0 0 1-.923-.609c-.287.637-.002 2.313 1.511 2.216-.387-.304-1.131-1.131-1.235-1.599.296.407 1.119 1.284 1.43 1.488zm6.699.456h-.382v3.773h.382v-3.773zm-.006.002c.799-.084 1.293-1.116 1.104-2.172-.087-.479-.146-1.017-.058-1.596-1.278.291-2.891 2.571-1.427 3.759-.042-.746.197-2.228.933-2.918-.737 1.634-.573 2.391-.552 2.927zm.145.591c.222.51 1.006.623 1.667.277a3.376 3.376 0 0 1 1.043-.369c-.336-.613-1.844-1.396-2.681-.131.478-.125 1.585-.221 2.023-.021-.506-.009-1.702.119-2.052.244zm-.722.67c.274-.483-.109-1.178-.783-1.496a3.409 3.409 0 0 1-.924-.608c-.287.637-.002 2.312 1.511 2.216-.387-.305-1.131-1.131-1.235-1.6.297.408 1.12 1.286 1.431 1.488zM35.281 37.624c-4.991-1.323-9.88-2.094-14.477-2.368C26.272 24.991 37.078 18 49.521 18c9.835 0 18.643 4.372 24.607 11.271-6.649.477-14.14 2.296-21.685 5.524a75.99 75.99 0 0 0-9.828 5.065c-2.367-.89-4.757-1.552-7.334-2.236zm8.035-4.335H43v3.122h.316v-3.122zm-.005.003c.662-.07 1.07-.923.913-1.797-.072-.396-.121-.841-.048-1.321-1.058.24-2.392 2.127-1.181 3.11-.035-.617.163-1.843.772-2.414-.609 1.352-.474 1.978-.456 2.422zm.12.489c.183.422.833.516 1.379.229.247-.128.53-.253.863-.305-.278-.507-1.526-1.155-2.218-.108.395-.104 1.312-.183 1.674-.018-.419-.007-1.409.098-1.698.202zm-.598.554c.227-.4-.09-.975-.647-1.238a2.83 2.83 0 0 1-.765-.504c-.237.527-.001 1.914 1.25 1.834-.32-.252-.936-.937-1.022-1.324.247.338.928 1.065 1.184 1.232zm-1.767-8.796h-.316v3.122h.316v-3.122zm-.005.003c.662-.07 1.07-.923.913-1.797-.072-.396-.121-.841-.048-1.321-1.058.24-2.392 2.127-1.181 3.11-.035-.617.163-1.843.772-2.414-.609 1.352-.474 1.978-.456 2.422zm.12.489c.183.422.833.516 1.379.229.247-.128.53-.253.863-.305-.278-.507-1.526-1.155-2.218-.108.395-.104 1.312-.183 1.674-.018-.419-.007-1.409.098-1.698.202zm-.598.554c.227-.4-.09-.975-.647-1.238a2.83 2.83 0 0 1-.765-.504c-.237.527-.001 1.914 1.25 1.834-.32-.252-.936-.937-1.022-1.324.247.338.928 1.065 1.184 1.232zm11.233-3.296H51.5v3.122h.316v-3.122zm-.005.003c.662-.07 1.07-.923.913-1.797-.071-.396-.12-.841-.048-1.321-1.059.24-2.392 2.127-1.182 3.11-.035-.617.164-1.843.772-2.414-.608 1.352-.473 1.978-.455 2.422zm.12.489c.183.422.833.516 1.379.229a2.8 2.8 0 0 1 .862-.305c-.277-.507-1.525-1.155-2.218-.108.396-.104 1.312-.183 1.674-.018-.418-.007-1.407.098-1.697.202zm-.597.554c.227-.4-.091-.975-.648-1.238a2.83 2.83 0 0 1-.765-.504c-.237.527-.001 1.914 1.25 1.834-.32-.252-.936-.937-1.022-1.324.247.338.927 1.065 1.185 1.232zm-14.087 7.586h-.316v3.122h.316v-3.122zm-.005.003c.662-.07 1.07-.923.913-1.797-.072-.396-.121-.841-.048-1.321-1.058.24-2.392 2.127-1.181 3.11-.035-.617.163-1.843.772-2.414-.609 1.352-.474 1.978-.456 2.422zm.12.489c.183.422.833.516 1.379.229.247-.128.53-.253.863-.305-.278-.507-1.526-1.155-2.218-.108.395-.104 1.312-.183 1.674-.018-.419-.007-1.409.099-1.698.202zm-.597.555c.227-.4-.09-.975-.647-1.238a2.83 2.83 0 0 1-.765-.504c-.237.527-.001 1.914 1.25 1.834-.32-.252-.936-.937-1.022-1.324.246.337.927 1.064 1.184 1.232zm-6.018-2.547h-.316v3.122h.316v-3.122zm-.005.003c.662-.07 1.07-.923.913-1.797-.072-.396-.121-.841-.048-1.321-1.058.24-2.392 2.127-1.181 3.11-.035-.617.163-1.843.772-2.414-.609 1.352-.474 1.978-.456 2.422zm.12.489c.183.422.833.516 1.379.229.247-.128.53-.253.863-.305-.278-.507-1.526-1.155-2.218-.108.395-.104 1.312-.183 1.674-.018-.419-.007-1.409.099-1.698.202zm-.597.555c.227-.4-.09-.975-.647-1.238a2.83 2.83 0 0 1-.765-.504c-.237.527-.001 1.914 1.25 1.834-.32-.252-.936-.937-1.022-1.324.246.337.927 1.064 1.184 1.232zm19.002-.65h-.317v3.122h.316v-3.122zm-.006.003c.662-.07 1.07-.923.913-1.797-.072-.396-.121-.841-.048-1.321-1.058.24-2.392 2.127-1.181 3.11-.035-.617.163-1.843.772-2.414-.609 1.352-.473 1.978-.456 2.422zm.12.489c.183.422.833.516 1.379.229.247-.128.531-.253.863-.305-.277-.507-1.526-1.155-2.218-.108.395-.104 1.312-.183 1.673-.018-.417-.007-1.407.099-1.697.202zm-.597.555c.227-.4-.09-.975-.647-1.238a2.83 2.83 0 0 1-.765-.504c-.237.527-.001 1.914 1.25 1.834-.32-.252-.936-.937-1.022-1.324.246.337.927 1.064 1.184 1.232zm6.733-3.297H55.2v3.122h.316v-3.122zm-.005.003c.661-.07 1.069-.923.912-1.797-.071-.396-.12-.841-.047-1.321-1.059.24-2.393 2.127-1.182 3.11-.035-.617.163-1.843.771-2.414-.608 1.352-.472 1.978-.454 2.422zm.119.489c.184.422.833.516 1.379.229.247-.128.531-.253.863-.305-.277-.507-1.525-1.155-2.219-.108.396-.104 1.312-.183 1.674-.018-.418-.007-1.407.099-1.697.202zm-.597.555c.227-.4-.091-.975-.647-1.238a2.83 2.83 0 0 1-.765-.504c-.237.527-.001 1.914 1.251 1.834-.32-.252-.936-.937-1.022-1.324.245.337.926 1.064 1.183 1.232zm7.233-2.797h-.317v3.122h.316v-3.122zm-.005.003c.661-.07 1.069-.923.912-1.797-.071-.396-.12-.841-.047-1.321-1.059.24-2.393 2.127-1.182 3.11-.035-.617.163-1.843.771-2.414-.608 1.352-.472 1.978-.454 2.422zm.119.489c.184.422.833.516 1.379.229.247-.128.531-.253.863-.305-.277-.507-1.525-1.155-2.219-.108.396-.104 1.312-.183 1.674-.018-.418-.007-1.407.099-1.697.202zm-.597.555c.227-.4-.091-.975-.647-1.238a2.83 2.83 0 0 1-.765-.504c-.237.527-.001 1.914 1.251 1.834-.32-.252-.936-.937-1.022-1.324.245.337.926 1.064 1.183 1.232z"></path></g></switch></g><!----></svg>